<svg width="40" height="40" viewBox="0 0 40 40" fill="none" xmlns="http://www.w3.org/2000/svg">
<path d="M19.9998 25.0001C22.7613 25.0001 24.9998 22.7615 24.9998 20.0001C24.9998 17.2387 22.7613 15.0001 19.9998 15.0001C17.2384 15.0001 14.9998 17.2387 14.9998 20.0001C14.9998 22.7615 17.2384 25.0001 19.9998 25.0001Z" stroke="white" stroke-linecap="round" stroke-linejoin="round"/>
<path d="M32.3332 25.0001C32.1113 25.5028 32.0451 26.0604 32.1432 26.6011C32.2412 27.1417 32.4989 27.6406 32.8832 28.0334L32.9832 28.1334C33.2931 28.443 33.539 28.8106 33.7067 29.2153C33.8745 29.6199 33.9608 30.0537 33.9608 30.4917C33.9608 30.9298 33.8745 31.3636 33.7067 31.7682C33.539 32.1729 33.2931 32.5405 32.9832 32.8501C32.6736 33.16 32.306 33.4059 31.9013 33.5736C31.4966 33.7414 31.0629 33.8277 30.6248 33.8277C30.1868 33.8277 29.753 33.7414 29.3484 33.5736C28.9437 33.4059 28.5761 33.16 28.2665 32.8501L28.1665 32.7501C27.7737 32.3659 27.2748 32.1081 26.7342 32.0101C26.1935 31.912 25.6359 31.9782 25.1332 32.2001C24.6402 32.4114 24.2198 32.7622 23.9237 33.2093C23.6276 33.6565 23.4686 34.1804 23.4665 34.7167V35.0001C23.4665 35.8841 23.1153 36.732 22.4902 37.3571C21.8651 37.9822 21.0172 38.3334 20.1332 38.3334C19.2491 38.3334 18.4013 37.9822 17.7761 37.3571C17.151 36.732 16.7998 35.8841 16.7998 35.0001V34.8501C16.7869 34.2984 16.6084 33.7634 16.2874 33.3146C15.9663 32.8658 15.5177 32.5239 14.9998 32.3334C14.4971 32.1116 13.9395 32.0454 13.3989 32.1434C12.8582 32.2414 12.3593 32.4992 11.9665 32.8834L11.8665 32.9834C11.5569 33.2933 11.1893 33.5392 10.7846 33.7069C10.38 33.8747 9.94622 33.961 9.50817 33.961C9.07012 33.961 8.63636 33.8747 8.2317 33.7069C7.82704 33.5392 7.45941 33.2933 7.14984 32.9834C6.83992 32.6738 6.59405 32.3062 6.4263 31.9016C6.25856 31.4969 6.17222 31.0631 6.17222 30.6251C6.17222 30.187 6.25856 29.7533 6.4263 29.3486C6.59405 28.944 6.83992 28.5763 7.14984 28.2667L7.24984 28.1667C7.63407 27.774 7.89181 27.2751 7.98984 26.7344C8.08788 26.1937 8.0217 25.6361 7.79984 25.1334C7.58857 24.6405 7.23776 24.2201 6.79061 23.9239C6.34346 23.6278 5.81948 23.4689 5.28317 23.4667H4.99984C4.11578 23.4667 3.26794 23.1156 2.64281 22.4904C2.01769 21.8653 1.6665 21.0175 1.6665 20.1334C1.6665 19.2494 2.01769 18.4015 2.64281 17.7764C3.26794 17.1513 4.11578 16.8001 4.99984 16.8001H5.14984C5.70149 16.7872 6.23651 16.6086 6.68534 16.2876C7.13416 15.9666 7.47603 15.518 7.6665 15.0001C7.88836 14.4974 7.95454 13.9398 7.85651 13.3991C7.75848 12.8584 7.50073 12.3595 7.1165 11.9667L7.0165 11.8667C6.70658 11.5572 6.46072 11.1895 6.29297 10.7849C6.12522 10.3802 6.03888 9.94647 6.03888 9.50841C6.03888 9.07036 6.12522 8.63661 6.29297 8.23195C6.46072 7.82729 6.70658 7.45966 7.0165 7.15008C7.32608 6.84016 7.69371 6.5943 8.09837 6.42655C8.50303 6.2588 8.93679 6.17246 9.37484 6.17246C9.81289 6.17246 10.2466 6.2588 10.6513 6.42655C11.056 6.5943 11.4236 6.84016 11.7332 7.15008L11.8332 7.25008C12.226 7.63431 12.7249 7.89206 13.2655 7.99009C13.8062 8.08812 14.3638 8.02194 14.8665 7.80008H14.9998C15.4928 7.58881 15.9132 7.23801 16.2093 6.79086C16.5055 6.34371 16.6644 5.81973 16.6665 5.28342V5.00008C16.6665 4.11603 17.0177 3.26818 17.6428 2.64306C18.2679 2.01794 19.1158 1.66675 19.9998 1.66675C20.8839 1.66675 21.7317 2.01794 22.3569 2.64306C22.982 3.26818 23.3332 4.11603 23.3332 5.00008V5.15008C23.3353 5.68639 23.4942 6.21037 23.7904 6.65752C24.0865 7.10467 24.5069 7.45548 24.9998 7.66675C25.5025 7.88861 26.0602 7.95479 26.6008 7.85676C27.1415 7.75872 27.6404 7.50098 28.0332 7.11675L28.1332 7.01675C28.4427 6.70683 28.8104 6.46096 29.215 6.29322C29.6197 6.12547 30.0535 6.03913 30.4915 6.03913C30.9296 6.03913 31.3633 6.12547 31.768 6.29322C32.1726 6.46096 32.5403 6.70683 32.8498 7.01675C33.1598 7.32633 33.4056 7.69395 33.5734 8.09861C33.7411 8.50327 33.8275 8.93703 33.8275 9.37508C33.8275 9.81313 33.7411 10.2469 33.5734 10.6515C33.4056 11.0562 33.1598 11.4238 32.8498 11.7334L32.7498 11.8334C32.3656 12.2262 32.1079 12.7251 32.0098 13.2658C31.9118 13.8064 31.978 14.3641 32.1998 14.8667V15.0001C32.4111 15.493 32.7619 15.9134 33.2091 16.2096C33.6562 16.5057 34.1802 16.6646 34.7165 16.6667H34.9998C35.8839 16.6667 36.7317 17.0179 37.3569 17.6431C37.982 18.2682 38.3332 19.116 38.3332 20.0001C38.3332 20.8841 37.982 21.732 37.3569 22.3571C36.7317 22.9822 35.8839 23.3334 34.9998 23.3334H34.8498C34.3135 23.3356 33.7895 23.4945 33.3424 23.7906C32.8952 24.0867 32.5444 24.5071 32.3332 25.0001Z" stroke="white" stroke-linecap="round" stroke-linejoin="round"/>
</svg>
