<svg width="47" height="47" viewBox="0 0 47 47" fill="none" xmlns="http://www.w3.org/2000/svg">
<path d="M21.1521 7.69167H7.69167C6.67169 7.69167 5.69348 8.09686 4.97225 8.81809C4.25102 9.53932 3.84583 10.5175 3.84583 11.5375V38.4583C3.84583 39.4783 4.25102 40.4565 4.97225 41.1778C5.69348 41.899 6.67169 42.3042 7.69167 42.3042H34.6125C35.6325 42.3042 36.6107 41.899 37.3319 41.1778C38.0531 40.4565 38.4583 39.4783 38.4583 38.4583V24.9979M35.574 4.8073C36.3389 4.04231 37.3765 3.61255 38.4583 3.61255C39.5402 3.61255 40.5777 4.04231 41.3427 4.8073C42.1077 5.57228 42.5375 6.60982 42.5375 7.69167C42.5375 8.77352 42.1077 9.81106 41.3427 10.576L23.075 28.8438L15.3833 30.7667L17.3062 23.075L35.574 4.8073Z" stroke="white" stroke-width="4" stroke-linecap="round" stroke-linejoin="round"/>
</svg>
