<svg width="47" height="47" viewBox="0 0 47 47" fill="none" xmlns="http://www.w3.org/2000/svg">
<path d="M26.9204 3.8457H11.5373C10.5173 3.8457 9.53916 4.25088 8.81794 4.9721C8.09672 5.69332 7.69154 6.67151 7.69154 7.69147V38.4576C7.69154 39.4776 8.09672 40.4558 8.81794 41.177C9.53916 41.8982 10.5173 42.3034 11.5373 42.3034H34.6119C35.6319 42.3034 36.6101 41.8982 37.3313 41.177C38.0525 40.4558 38.4577 39.4776 38.4577 38.4576V15.383M26.9204 3.8457L38.4577 15.383M26.9204 3.8457V15.383H38.4577M30.7662 24.9974H15.3831M30.7662 32.689H15.3831M19.2289 17.3059H15.3831" stroke="#F3F3F3" stroke-width="2" stroke-linecap="round" stroke-linejoin="round"/>
</svg>
