<svg width="40" height="40" viewBox="0 0 40 40" fill="none" xmlns="http://www.w3.org/2000/svg">
<path d="M19.5575 24.4469C22.2579 24.4469 24.4469 22.2579 24.4469 19.5576C24.4469 16.8572 22.2579 14.6682 19.5575 14.6682C16.8572 14.6682 14.6681 16.8572 14.6681 19.5576C14.6681 22.2579 16.8572 24.4469 19.5575 24.4469Z" stroke="white" stroke-linecap="round" stroke-linejoin="round"/>
<path d="M31.618 24.4469C31.401 24.9385 31.3363 25.4838 31.4322 26.0125C31.5281 26.5412 31.7801 27.029 32.1558 27.4132L32.2536 27.5109C32.5567 27.8137 32.7971 28.1732 32.9611 28.5689C33.1252 28.9646 33.2096 29.3887 33.2096 29.8171C33.2096 30.2455 33.1252 30.6696 32.9611 31.0653C32.7971 31.461 32.5567 31.8205 32.2536 32.1233C31.9509 32.4263 31.5914 32.6667 31.1957 32.8308C30.8 32.9948 30.3758 33.0793 29.9475 33.0793C29.5191 33.0793 29.0949 32.9948 28.6992 32.8308C28.3035 32.6667 27.944 32.4263 27.6413 32.1233L27.5435 32.0255C27.1594 31.6497 26.6715 31.3977 26.1428 31.3018C25.6142 31.206 25.0689 31.2707 24.5773 31.4876C24.0952 31.6942 23.6841 32.0373 23.3946 32.4745C23.105 32.9118 22.9496 33.4242 22.9475 33.9486V34.2257C22.9475 35.0902 22.6041 35.9193 21.9928 36.5306C21.3815 37.1419 20.5524 37.4853 19.6879 37.4853C18.8234 37.4853 17.9943 37.1419 17.383 36.5306C16.7717 35.9193 16.4283 35.0902 16.4283 34.2257V34.079C16.4157 33.5396 16.2411 33.0164 15.9272 32.5775C15.6133 32.1386 15.1746 31.8043 14.6681 31.618C14.1766 31.4011 13.6313 31.3364 13.1026 31.4322C12.5739 31.5281 12.086 31.7801 11.7019 32.1559L11.6041 32.2536C11.3014 32.5567 10.9419 32.7971 10.5462 32.9612C10.1505 33.1252 9.72633 33.2096 9.29797 33.2096C8.86961 33.2096 8.44545 33.1252 8.04974 32.9612C7.65404 32.7971 7.29454 32.5567 6.99181 32.2536C6.68875 31.9509 6.44833 31.5914 6.28429 31.1957C6.12025 30.8 6.03582 30.3758 6.03582 29.9475C6.03582 29.5191 6.12025 29.095 6.28429 28.6993C6.44833 28.3036 6.68875 27.9441 6.99181 27.6413L7.0896 27.5435C7.46533 27.1594 7.71737 26.6716 7.81324 26.1429C7.9091 25.6142 7.84438 25.0689 7.62743 24.5773C7.42084 24.0953 7.07779 23.6842 6.64054 23.3946C6.20328 23.105 5.69089 22.9496 5.16645 22.9475H4.88938C4.02488 22.9475 3.1958 22.6041 2.5845 21.9928C1.97321 21.3815 1.62979 20.5524 1.62979 19.6879C1.62979 18.8234 1.97321 17.9944 2.5845 17.3831C3.1958 16.7718 4.02488 16.4283 4.88938 16.4283H5.03606C5.57551 16.4157 6.0987 16.2411 6.53759 15.9272C6.97648 15.6133 7.31079 15.1746 7.49705 14.6682C7.714 14.1766 7.77872 13.6313 7.68285 13.1026C7.58699 12.5739 7.33495 12.0861 6.95922 11.7019L6.86143 11.6042C6.55837 11.3014 6.31794 10.9419 6.15391 10.5462C5.98987 10.1505 5.90544 9.72636 5.90544 9.298C5.90544 8.86964 5.98987 8.44548 6.15391 8.04977C6.31794 7.65407 6.55837 7.29457 6.86143 6.99184C7.16416 6.68878 7.52365 6.44835 7.91936 6.28432C8.31507 6.12028 8.73923 6.03585 9.16759 6.03585C9.59595 6.03585 10.0201 6.12028 10.4158 6.28432C10.8115 6.44835 11.171 6.68878 11.4737 6.99184L11.5715 7.08963C11.9556 7.46536 12.4435 7.7174 12.9722 7.81327C13.5009 7.90913 14.0462 7.84441 14.5378 7.62746H14.6681C15.1502 7.42086 15.5613 7.07782 15.8509 6.64057C16.1404 6.20331 16.2958 5.69092 16.2979 5.16647V4.88941C16.2979 4.02491 16.6414 3.19582 17.2526 2.58453C17.8639 1.97324 18.693 1.62982 19.5575 1.62982C20.422 1.62982 21.2511 1.97324 21.8624 2.58453C22.4737 3.19582 22.8171 4.02491 22.8171 4.88941V5.03609C22.8192 5.56054 22.9746 6.07293 23.2642 6.51018C23.5537 6.94744 23.9649 7.29048 24.4469 7.49708C24.9385 7.71403 25.4838 7.77875 26.0125 7.68288C26.5412 7.58702 27.029 7.33497 27.4131 6.95925L27.5109 6.86146C27.8136 6.55839 28.1731 6.31797 28.5688 6.15393C28.9646 5.9899 29.3887 5.90547 29.8171 5.90547C30.2454 5.90547 30.6696 5.9899 31.0653 6.15393C31.461 6.31797 31.8205 6.55839 32.1232 6.86146C32.4263 7.16419 32.6667 7.52368 32.8308 7.91939C32.9948 8.3151 33.0792 8.73926 33.0792 9.16762C33.0792 9.59598 32.9948 10.0201 32.8308 10.4158C32.6667 10.8116 32.4263 11.171 32.1232 11.4738L32.0254 11.5716C31.6497 11.9557 31.3977 12.4435 31.3018 12.9722C31.2059 13.5009 31.2707 14.0462 31.4876 14.5378V14.6682C31.6942 15.1502 32.0373 15.5613 32.4745 15.8509C32.9118 16.1405 33.4242 16.2959 33.9486 16.298H34.2257C35.0902 16.298 35.9193 16.6414 36.5305 17.2527C37.1418 17.864 37.4853 18.6931 37.4853 19.5576C37.4853 20.422 37.1418 21.2511 36.5305 21.8624C35.9193 22.4737 35.0902 22.8171 34.2257 22.8171H34.079C33.5545 22.8192 33.0422 22.9746 32.6049 23.2642C32.1676 23.5538 31.8246 23.9649 31.618 24.4469Z" stroke="white" stroke-linecap="round" stroke-linejoin="round"/>
</svg>
