<svg width="47" height="47" viewBox="0 0 47 47" fill="none" xmlns="http://www.w3.org/2000/svg">
<path d="M15.5 23.5H2V28.5L4.5 35L13 43L22 45L31 43L39.5 37.5L42.5 33L44.5 23.5H31L26.5 17L22 15.5L17.5 19.5L15.5 23.5Z" fill="#9A9A9A"/>
<path d="M2 23H15L16.5 20L22.5 15L27.5 16.5L30.5 23H45V22L43 15L38.5 7.5L32 2.5L24 1.5L16.5 2.5L8 7.5L2 16.5V23Z" fill="#CC0A0A"/>
<circle cx="23.0746" cy="23.0746" r="21.5746" stroke="white" stroke-width="3"/>
<circle cx="23.0746" cy="23.0747" r="7.15298" stroke="white" stroke-width="3"/>
<line x1="0.401245" y1="22.9791" x2="16.8545" y2="22.9791" stroke="white" stroke-width="3"/>
<line x1="28.8934" y1="22.9791" x2="45.3466" y2="22.9791" stroke="white" stroke-width="3"/>
</svg>
