<svg width="1050" height="275" viewBox="0 0 1050 275" fill="none" xmlns="http://www.w3.org/2000/svg">
<g filter="url(#filter0_d_157_86)">
<mask id="path-1-inside-1_157_86" fill="white">
<path d="M283.253 237.5H192.031L179.618 216H170.381L157.969 237.5H66.7471L169 60.3916V135.447C149.755 138.342 135 154.948 135 175C135 183.499 137.653 191.378 142.173 197.857L175 141L207.827 197.857C212.347 191.378 215 183.499 215 175C215 154.948 200.245 138.342 181 135.447V60.3916L283.253 237.5Z"/>
</mask>
<path d="M283.253 237.5H192.031L179.618 216H170.381L157.969 237.5H66.7471L169 60.3916V135.447C149.755 138.342 135 154.948 135 175C135 183.499 137.653 191.378 142.173 197.857L175 141L207.827 197.857C212.347 191.378 215 183.499 215 175C215 154.948 200.245 138.342 181 135.447V60.3916L283.253 237.5Z" fill="url(#paint0_linear_157_86)"/>
<path d="M283.253 237.5V240.5H288.449L285.851 236L283.253 237.5ZM192.031 237.5L189.433 239L190.299 240.5H192.031V237.5ZM179.618 216L182.216 214.5L181.35 213H179.618V216ZM170.381 216V213H168.649L167.783 214.5L170.381 216ZM157.969 237.5V240.5H159.701L160.567 239L157.969 237.5ZM66.7471 237.5L64.149 236L61.5509 240.5H66.7471V237.5ZM169 60.3916H172V49.1954L166.402 58.8916L169 60.3916ZM169 135.447L169.446 138.414L172 138.03V135.447H169ZM142.173 197.857L139.712 199.574L142.412 203.443L144.771 199.357L142.173 197.857ZM175 141L177.598 139.5L175 135L172.402 139.5L175 141ZM207.827 197.857L205.229 199.357L207.588 203.443L210.288 199.574L207.827 197.857ZM181 135.447H178V138.03L180.554 138.414L181 135.447ZM181 60.3916L183.598 58.8916L178 49.1954V60.3916H181ZM283.253 237.5V234.5H192.031V237.5V240.5H283.253V237.5ZM192.031 237.5L194.629 236L182.216 214.5L179.618 216L177.02 217.5L189.433 239L192.031 237.5ZM179.618 216V213H170.381V216V219H179.618V216ZM170.381 216L167.783 214.5L155.371 236L157.969 237.5L160.567 239L172.979 217.5L170.381 216ZM157.969 237.5V234.5H66.7471V237.5V240.5H157.969V237.5ZM66.7471 237.5L69.3452 239L171.598 61.8916L169 60.3916L166.402 58.8916L64.149 236L66.7471 237.5ZM169 60.3916H166V135.447H169H172V60.3916H169ZM169 135.447L168.554 132.481C147.863 135.593 132 153.441 132 175H135H138C138 156.455 151.647 141.091 169.446 138.414L169 135.447ZM135 175H132C132 184.133 134.853 192.608 139.712 199.574L142.173 197.857L144.633 196.141C140.453 190.149 138 182.865 138 175H135ZM142.173 197.857L144.771 199.357L177.598 142.5L175 141L172.402 139.5L139.575 196.357L142.173 197.857ZM175 141L172.402 142.5L205.229 199.357L207.827 197.857L210.425 196.357L177.598 139.5L175 141ZM207.827 197.857L210.288 199.574C215.147 192.608 218 184.133 218 175H215H212C212 182.865 209.547 190.149 205.367 196.141L207.827 197.857ZM215 175H218C218 153.441 202.137 135.593 181.446 132.481L181 135.447L180.554 138.414C198.353 141.091 212 156.455 212 175H215ZM181 135.447H184V60.3916H181H178V135.447H181ZM181 60.3916L178.402 61.8916L280.655 239L283.253 237.5L285.851 236L183.598 58.8916L181 60.3916Z" fill="white" mask="url(#path-1-inside-1_157_86)"/>
</g>
<path d="M194.5 195L177 154L187 188H180.5L194.5 195Z" fill="url(#paint1_linear_157_86)"/>
<path d="M156 195L173.5 153.5L163.5 188H170L156 195Z" fill="url(#paint2_linear_157_86)"/>
<ellipse cx="175" cy="188" rx="3" ry="6" fill="url(#paint3_linear_157_86)"/>
<path d="M251.6 188.7L278.014 234.45H225.186L251.6 188.7Z" fill="url(#paint4_linear_157_86)"/>
<path d="M98.3 188.8L124.714 234.55H71.8863L98.3 188.8Z" fill="url(#paint5_linear_157_86)"/>
<g filter="url(#filter1_d_157_86)">
<path d="M292.343 174L333.559 82.48H365.175L406.391 174H384.119L375.415 154.672H323.319L314.615 174H292.343ZM330.743 138.032H367.991L350.199 98.48H348.535L330.743 138.032ZM413.704 174.64V158L487.304 158.128C491.058 158.128 493.917 157.275 495.88 155.568C497.928 153.776 498.952 150.917 498.952 146.992C498.952 143.067 497.928 140.251 495.88 138.544C493.917 136.752 491.058 135.856 487.304 135.856H441.479C432.008 135.856 424.626 133.595 419.336 129.072C414.13 124.464 411.528 117.723 411.528 108.848C411.528 99.9733 414.13 93.2747 419.336 88.752C424.626 84.144 432.008 81.84 441.479 81.84H513.416V98.48L443.656 98.352C439.986 98.352 437.128 99.2053 435.08 100.912C433.032 102.533 432.008 105.179 432.008 108.848C432.008 112.517 433.032 115.205 435.08 116.912C437.128 118.533 439.986 119.344 443.656 119.344H489.48C498.952 119.344 506.29 121.691 511.496 126.384C516.786 130.992 519.432 137.861 519.432 146.992C519.432 156.037 516.786 162.907 511.496 167.6C506.29 172.293 498.952 174.64 489.48 174.64H413.704ZM579.377 174.64C562.481 174.64 549.553 170.757 540.593 162.992C531.633 155.141 527.153 143.536 527.153 128.176C527.153 112.901 531.633 101.339 540.593 93.488C549.553 85.6373 562.481 81.7547 579.377 81.84L625.457 82.096V98.48H580.785C569.691 98.48 561.457 100.827 556.081 105.52C550.705 110.213 548.017 117.765 548.017 128.176C548.017 138.587 550.705 146.181 556.081 150.96C561.457 155.653 569.691 158 580.785 158H626.737V174.64H579.377ZM639.523 174V82.48H739.875V99.12H660.003V119.344H732.451V135.984H660.003V157.36H739.875V174H639.523ZM753.898 174V82.48H774.634L839.402 148.272V82.48H859.882V174H839.146L774.378 108.08V174H753.898ZM874.573 128.816V82.48H987.213V128.816H966.477V99.12H938.573V174H918.093V99.12H895.309V128.816H874.573Z" fill="url(#paint6_linear_157_86)"/>
</g>
<g filter="url(#filter2_d_157_86)">
<path d="M292.57 238V193.136H312.09C316.314 193.136 319.514 194.117 321.69 196.08C323.908 198.043 325.018 200.965 325.018 204.848C325.018 208.731 323.908 211.653 321.69 213.616C319.514 215.579 316.314 216.56 312.09 216.56H296.474V238H292.57ZM296.474 212.784H311.77C314.842 212.784 317.124 212.144 318.618 210.864C320.154 209.584 320.922 207.579 320.922 204.848C320.922 202.117 320.154 200.112 318.618 198.832C317.124 197.552 314.842 196.912 311.77 196.912H296.474V212.784ZM345.86 238.704C343.129 238.704 340.697 238.021 338.564 236.656C336.43 235.291 334.745 233.413 333.508 231.024C332.27 228.592 331.652 225.797 331.652 222.64C331.652 219.483 332.27 216.709 333.508 214.32C334.745 211.888 336.43 209.989 338.564 208.624C340.697 207.259 343.129 206.576 345.86 206.576C348.633 206.576 351.086 207.259 353.22 208.624C355.353 209.989 357.038 211.888 358.276 214.32C359.513 216.709 360.132 219.483 360.132 222.64C360.132 225.797 359.513 228.592 358.276 231.024C357.038 233.413 355.353 235.291 353.22 236.656C351.086 238.021 348.633 238.704 345.86 238.704ZM345.86 235.056C347.865 235.056 349.636 234.544 351.172 233.52C352.75 232.496 353.988 231.067 354.884 229.232C355.78 227.355 356.228 225.157 356.228 222.64C356.228 220.123 355.78 217.947 354.884 216.112C353.988 214.235 352.75 212.784 351.172 211.76C349.636 210.736 347.865 210.224 345.86 210.224C342.873 210.224 340.398 211.355 338.436 213.616C336.516 215.835 335.556 218.843 335.556 222.64C335.556 226.395 336.516 229.403 338.436 231.664C340.398 233.925 342.873 235.056 345.86 235.056ZM371.08 238V191.792H374.984V219.888L389 207.344H394.376L378.504 221.232L395.016 238H389.96L374.984 222.576V238H371.08ZM414.761 238.704C411.988 238.704 409.513 238.064 407.337 236.784C405.204 235.461 403.519 233.605 402.281 231.216C401.087 228.784 400.489 225.925 400.489 222.64C400.489 219.44 401.087 216.645 402.281 214.256C403.519 211.867 405.204 210.011 407.337 208.688C409.471 207.323 411.903 206.64 414.633 206.64C417.407 206.64 419.753 207.344 421.673 208.752C423.636 210.117 425.129 211.909 426.153 214.128C427.177 216.304 427.689 218.608 427.689 221.04V222.32H404.393C404.308 226.16 405.204 229.275 407.081 231.664C409.001 234.011 411.583 235.184 414.825 235.184C417.215 235.184 419.22 234.587 420.841 233.392C422.463 232.155 423.785 230.341 424.809 227.952L428.009 229.808C425.279 235.739 420.863 238.704 414.761 238.704ZM404.649 218.992H423.849C423.636 217.328 423.103 215.813 422.249 214.448C421.439 213.083 420.372 211.995 419.049 211.184C417.769 210.373 416.297 209.968 414.633 209.968C412.031 209.968 409.833 210.779 408.041 212.4C406.292 213.979 405.161 216.176 404.649 218.992ZM438.98 238V207.344H442.628L442.82 212.144C443.502 210.565 444.633 209.243 446.212 208.176C447.79 207.109 449.582 206.576 451.588 206.576C454.062 206.576 456.089 207.152 457.668 208.304C459.289 209.456 460.377 211.056 460.932 213.104C461.657 211.227 462.809 209.669 464.388 208.432C465.966 207.195 467.993 206.576 470.468 206.576C473.625 206.576 476.1 207.579 477.892 209.584C479.684 211.547 480.58 214.512 480.58 218.48V238H476.676V219.056C476.676 215.813 476.057 213.531 474.82 212.208C473.582 210.885 471.918 210.224 469.828 210.224C468.206 210.224 466.777 210.651 465.54 211.504C464.345 212.315 463.406 213.403 462.724 214.768C462.084 216.091 461.764 217.541 461.764 219.12V238H457.86V219.056C457.86 215.813 457.22 213.531 455.94 212.208C454.702 210.885 453.038 210.224 450.948 210.224C449.326 210.224 447.897 210.651 446.66 211.504C445.465 212.357 444.526 213.467 443.844 214.832C443.204 216.155 442.884 217.563 442.884 219.056V238H438.98ZM505.785 238.704C503.054 238.704 500.622 238.021 498.489 236.656C496.355 235.291 494.67 233.413 493.433 231.024C492.195 228.592 491.577 225.797 491.577 222.64C491.577 219.483 492.195 216.709 493.433 214.32C494.67 211.888 496.355 209.989 498.489 208.624C500.622 207.259 503.054 206.576 505.785 206.576C508.558 206.576 511.011 207.259 513.145 208.624C515.278 209.989 516.963 211.888 518.201 214.32C519.438 216.709 520.057 219.483 520.057 222.64C520.057 225.797 519.438 228.592 518.201 231.024C516.963 233.413 515.278 235.291 513.145 236.656C511.011 238.021 508.558 238.704 505.785 238.704ZM505.785 235.056C507.79 235.056 509.561 234.544 511.097 233.52C512.675 232.496 513.913 231.067 514.809 229.232C515.705 227.355 516.153 225.157 516.153 222.64C516.153 220.123 515.705 217.947 514.809 216.112C513.913 214.235 512.675 212.784 511.097 211.76C509.561 210.736 507.79 210.224 505.785 210.224C502.798 210.224 500.323 211.355 498.361 213.616C496.441 215.835 495.481 218.843 495.481 222.64C495.481 226.395 496.441 229.403 498.361 231.664C500.323 233.925 502.798 235.056 505.785 235.056ZM531.005 238V207.344H534.653L534.781 211.696C535.762 210.245 537.063 209.029 538.685 208.048C540.349 207.067 542.226 206.576 544.317 206.576C547.602 206.576 550.247 207.621 552.253 209.712C554.258 211.803 555.261 214.789 555.261 218.672V238H551.421V219.248C551.421 216.261 550.695 214.021 549.245 212.528C547.837 211.035 546.002 210.288 543.741 210.288C542.034 210.288 540.498 210.672 539.133 211.44C537.81 212.165 536.765 213.168 535.997 214.448C535.271 215.685 534.909 217.072 534.909 218.608V238H531.005ZM589.795 238V193.2H602.787C606.499 193.2 609.72 193.797 612.451 194.992C615.181 196.144 617.421 197.765 619.171 199.856C620.963 201.904 622.285 204.293 623.139 207.024C624.035 209.712 624.483 212.571 624.483 215.6C624.483 218.629 624.035 221.509 623.139 224.24C622.285 226.928 620.963 229.317 619.171 231.408C617.421 233.456 615.181 235.077 612.451 236.272C609.72 237.424 606.499 238 602.787 238H589.795ZM593.699 234.224H602.595C606.819 234.224 610.232 233.371 612.835 231.664C615.48 229.915 617.4 227.632 618.595 224.816C619.832 221.957 620.451 218.885 620.451 215.6C620.451 212.272 619.832 209.2 618.595 206.384C617.4 203.525 615.48 201.243 612.835 199.536C610.232 197.787 606.819 196.912 602.595 196.912H593.699V234.224ZM635.417 238V207.344H639.129L639.321 212.656C640.175 210.864 641.519 209.413 643.353 208.304C645.231 207.152 647.3 206.576 649.561 206.576C650.159 206.576 650.756 206.619 651.353 206.704C651.993 206.747 652.527 206.832 652.953 206.96V210.736C652.569 210.651 652.015 210.565 651.289 210.48C650.607 210.395 649.903 210.352 649.177 210.352C647.385 210.352 645.743 210.779 644.249 211.632C642.756 212.443 641.561 213.552 640.665 214.96C639.812 216.325 639.385 217.883 639.385 219.632V238H635.417ZM670.872 238.576C667.885 238.619 665.453 237.936 663.576 236.528C661.741 235.12 660.824 233.072 660.824 230.384C660.824 228.336 661.506 226.544 662.872 225.008C664.28 223.472 666.05 222.277 668.184 221.424C670.36 220.528 672.6 220.08 674.904 220.08C678.061 220.08 680.557 220.827 682.392 222.32V217.072C682.392 214.213 681.794 212.357 680.6 211.504C679.405 210.608 677.485 210.16 674.84 210.16C673.133 210.16 671.234 210.48 669.144 211.12C667.053 211.717 665.282 212.485 663.832 213.424L661.976 210.352C663.64 209.285 665.645 208.389 667.992 207.664C670.381 206.939 672.664 206.576 674.84 206.576C678.722 206.576 681.581 207.323 683.416 208.816C685.25 210.309 686.168 213.061 686.168 217.072V234.032C686.168 234.843 686.381 235.312 686.808 235.44C687.277 235.525 688.28 235.419 689.816 235.12V237.872C689.389 238.043 688.813 238.192 688.088 238.32C687.362 238.491 686.68 238.576 686.04 238.576C684.589 238.576 683.65 238.277 683.224 237.68C682.797 237.083 682.541 235.952 682.456 234.288C681.133 235.739 679.384 236.805 677.208 237.488C675.032 238.171 672.92 238.533 670.872 238.576ZM671.064 235.056C673.112 235.013 675.01 234.693 676.76 234.096C678.552 233.499 679.96 232.645 680.984 231.536C682.05 230.384 682.541 228.997 682.456 227.376C682.328 226.053 681.602 225.072 680.28 224.432C678.957 223.749 677.25 223.429 675.16 223.472C673.41 223.472 671.725 223.771 670.104 224.368C668.482 224.965 667.16 225.797 666.136 226.864C665.154 227.888 664.664 229.083 664.664 230.448C664.664 232.027 665.261 233.2 666.456 233.968C667.65 234.693 669.186 235.056 671.064 235.056ZM703.586 238V210.928H697.25V207.344H703.586V201.264C703.586 198.747 704.012 196.784 704.866 195.376C705.719 193.968 706.85 192.965 708.258 192.368C709.666 191.771 711.18 191.472 712.802 191.472C713.655 191.472 714.444 191.536 715.17 191.664C715.938 191.749 716.599 191.899 717.154 192.112V195.76C716.684 195.547 716.087 195.376 715.362 195.248C714.679 195.12 713.996 195.056 713.314 195.056C711.607 195.056 710.199 195.568 709.09 196.592C707.98 197.573 707.426 199.216 707.426 201.52V207.344H717.154V210.928H707.426V238H703.586ZM738.36 238.704C735.63 238.704 733.582 238.128 732.216 236.976C730.851 235.824 730.168 233.755 730.168 230.768V210.928H723.512V207.344H730.168V196.08H734.008V207.344H743.352V210.928H734.008V230.128C734.008 232.048 734.414 233.371 735.224 234.096C736.035 234.779 737.294 235.12 739 235.12C739.726 235.12 740.494 235.013 741.304 234.8C742.115 234.587 742.798 234.352 743.352 234.096V237.872C742.755 238.085 741.987 238.277 741.048 238.448C740.11 238.619 739.214 238.704 738.36 238.704ZM775.495 238V193.2H779.399V234.224H804.167V238H775.495ZM826.474 238.704C823.7 238.704 821.226 238.064 819.05 236.784C816.916 235.461 815.231 233.605 813.994 231.216C812.799 228.784 812.202 225.925 812.202 222.64C812.202 219.44 812.799 216.645 813.994 214.256C815.231 211.867 816.916 210.011 819.05 208.688C821.183 207.323 823.615 206.64 826.346 206.64C829.119 206.64 831.466 207.344 833.386 208.752C835.348 210.117 836.842 211.909 837.866 214.128C838.89 216.304 839.402 218.608 839.402 221.04V222.32H816.106C816.02 226.16 816.916 229.275 818.794 231.664C820.714 234.011 823.295 235.184 826.538 235.184C828.927 235.184 830.932 234.587 832.554 233.392C834.175 232.155 835.498 230.341 836.522 227.952L839.722 229.808C836.991 235.739 832.575 238.704 826.474 238.704ZM816.362 218.992H835.562C835.348 217.328 834.815 215.813 833.962 214.448C833.151 213.083 832.084 211.995 830.762 211.184C829.482 210.373 828.01 209.968 826.346 209.968C823.743 209.968 821.546 210.779 819.754 212.4C818.004 213.979 816.874 216.176 816.362 218.992ZM858.259 238.576C855.273 238.619 852.841 237.936 850.963 236.528C849.129 235.12 848.211 233.072 848.211 230.384C848.211 228.336 848.894 226.544 850.259 225.008C851.667 223.472 853.438 222.277 855.571 221.424C857.747 220.528 859.987 220.08 862.291 220.08C865.449 220.08 867.945 220.827 869.779 222.32V217.072C869.779 214.213 869.182 212.357 867.987 211.504C866.793 210.608 864.873 210.16 862.227 210.16C860.521 210.16 858.622 210.48 856.531 211.12C854.441 211.717 852.67 212.485 851.219 213.424L849.363 210.352C851.027 209.285 853.033 208.389 855.379 207.664C857.769 206.939 860.051 206.576 862.227 206.576C866.11 206.576 868.969 207.323 870.803 208.816C872.638 210.309 873.555 213.061 873.555 217.072V234.032C873.555 234.843 873.769 235.312 874.195 235.44C874.665 235.525 875.667 235.419 877.203 235.12V237.872C876.777 238.043 876.201 238.192 875.475 238.32C874.75 238.491 874.067 238.576 873.427 238.576C871.977 238.576 871.038 238.277 870.611 237.68C870.185 237.083 869.929 235.952 869.843 234.288C868.521 235.739 866.771 236.805 864.595 237.488C862.419 238.171 860.307 238.533 858.259 238.576ZM858.451 235.056C860.499 235.013 862.398 234.693 864.147 234.096C865.939 233.499 867.347 232.645 868.371 231.536C869.438 230.384 869.929 228.997 869.843 227.376C869.715 226.053 868.99 225.072 867.667 224.432C866.345 223.749 864.638 223.429 862.547 223.472C860.798 223.472 859.113 223.771 857.491 224.368C855.87 224.965 854.547 225.797 853.523 226.864C852.542 227.888 852.051 229.083 852.051 230.448C852.051 232.027 852.649 233.2 853.843 233.968C855.038 234.693 856.574 235.056 858.451 235.056ZM898.299 251.824C892.625 251.824 888.358 249.605 885.499 245.168L888.699 243.056C890.833 246.427 894.033 248.112 898.299 248.112C901.457 248.112 903.867 247.067 905.531 244.976C907.195 242.928 908.027 239.835 908.027 235.696V230.192C906.961 231.856 905.574 233.179 903.867 234.16C902.161 235.099 900.219 235.568 898.043 235.568C895.441 235.568 893.115 234.971 891.067 233.776C889.062 232.581 887.462 230.896 886.267 228.72C885.115 226.544 884.539 223.984 884.539 221.04C884.539 218.096 885.115 215.557 886.267 213.424C887.462 211.248 889.062 209.563 891.067 208.368C893.115 207.173 895.441 206.576 898.043 206.576C900.262 206.576 902.246 207.088 903.995 208.112C905.745 209.093 907.153 210.459 908.219 212.208L908.283 207.344H911.867V235.696C911.867 241.243 910.609 245.317 908.091 247.92C905.617 250.523 902.353 251.824 898.299 251.824ZM898.235 231.984C900.155 231.984 901.862 231.536 903.355 230.64C904.849 229.701 906.022 228.421 906.875 226.8C907.729 225.136 908.155 223.216 908.155 221.04C908.155 218.864 907.729 216.965 906.875 215.344C906.022 213.723 904.849 212.464 903.355 211.568C901.862 210.629 900.155 210.16 898.235 210.16C896.358 210.16 894.673 210.629 893.179 211.568C891.729 212.464 890.577 213.723 889.723 215.344C888.87 216.965 888.443 218.864 888.443 221.04C888.443 223.216 888.87 225.136 889.723 226.8C890.577 228.421 891.729 229.701 893.179 230.64C894.673 231.536 896.358 231.984 898.235 231.984ZM934.96 238.704C931.718 238.704 929.094 237.659 927.088 235.568C925.083 233.477 924.08 230.491 924.08 226.608V207.344H927.92V226.096C927.92 229.083 928.624 231.323 930.032 232.816C931.483 234.309 933.339 235.056 935.6 235.056C938.203 235.056 940.315 234.245 941.936 232.624C943.558 231.003 944.368 229.019 944.368 226.672V207.344H948.272V237.936H944.624L944.496 233.648C943.6 235.056 942.32 236.251 940.656 237.232C938.992 238.213 937.094 238.704 934.96 238.704ZM973.524 238.704C970.75 238.704 968.276 238.064 966.1 236.784C963.966 235.461 962.281 233.605 961.044 231.216C959.849 228.784 959.252 225.925 959.252 222.64C959.252 219.44 959.849 216.645 961.044 214.256C962.281 211.867 963.966 210.011 966.1 208.688C968.233 207.323 970.665 206.64 973.396 206.64C976.169 206.64 978.516 207.344 980.436 208.752C982.398 210.117 983.892 211.909 984.916 214.128C985.94 216.304 986.452 218.608 986.452 221.04V222.32H963.156C963.07 226.16 963.966 229.275 965.844 231.664C967.764 234.011 970.345 235.184 973.588 235.184C975.977 235.184 977.982 234.587 979.604 233.392C981.225 232.155 982.548 230.341 983.572 227.952L986.772 229.808C984.041 235.739 979.625 238.704 973.524 238.704ZM963.412 218.992H982.612C982.398 217.328 981.865 215.813 981.012 214.448C980.201 213.083 979.134 211.995 977.812 211.184C976.532 210.373 975.06 209.968 973.396 209.968C970.793 209.968 968.596 210.779 966.804 212.4C965.054 213.979 963.924 216.176 963.412 218.992Z" fill="white"/>
</g>
<defs>
<filter id="filter0_d_157_86" x="62.7471" y="60.3916" width="224.506" height="185.108" filterUnits="userSpaceOnUse" color-interpolation-filters="sRGB">
<feFlood flood-opacity="0" result="BackgroundImageFix"/>
<feColorMatrix in="SourceAlpha" type="matrix" values="0 0 0 0 0 0 0 0 0 0 0 0 0 0 0 0 0 0 127 0" result="hardAlpha"/>
<feOffset dy="4"/>
<feGaussianBlur stdDeviation="2"/>
<feComposite in2="hardAlpha" operator="out"/>
<feColorMatrix type="matrix" values="0 0 0 0 0 0 0 0 0 0 0 0 0 0 0 0 0 0 0.25 0"/>
<feBlend mode="normal" in2="BackgroundImageFix" result="effect1_dropShadow_157_86"/>
<feBlend mode="normal" in="SourceGraphic" in2="effect1_dropShadow_157_86" result="shape"/>
</filter>
<filter id="filter1_d_157_86" x="288.343" y="81.712" width="702.87" height="100.928" filterUnits="userSpaceOnUse" color-interpolation-filters="sRGB">
<feFlood flood-opacity="0" result="BackgroundImageFix"/>
<feColorMatrix in="SourceAlpha" type="matrix" values="0 0 0 0 0 0 0 0 0 0 0 0 0 0 0 0 0 0 127 0" result="hardAlpha"/>
<feOffset dy="4"/>
<feGaussianBlur stdDeviation="2"/>
<feComposite in2="hardAlpha" operator="out"/>
<feColorMatrix type="matrix" values="0 0 0 0 0 0 0 0 0 0 0 0 0 0 0 0 0 0 0.25 0"/>
<feBlend mode="normal" in2="BackgroundImageFix" result="effect1_dropShadow_157_86"/>
<feBlend mode="normal" in="SourceGraphic" in2="effect1_dropShadow_157_86" result="shape"/>
</filter>
<filter id="filter2_d_157_86" x="288.57" y="191.472" width="702.202" height="68.352" filterUnits="userSpaceOnUse" color-interpolation-filters="sRGB">
<feFlood flood-opacity="0" result="BackgroundImageFix"/>
<feColorMatrix in="SourceAlpha" type="matrix" values="0 0 0 0 0 0 0 0 0 0 0 0 0 0 0 0 0 0 127 0" result="hardAlpha"/>
<feOffset dy="4"/>
<feGaussianBlur stdDeviation="2"/>
<feComposite in2="hardAlpha" operator="out"/>
<feColorMatrix type="matrix" values="0 0 0 0 0 0 0 0 0 0 0 0 0 0 0 0 0 0 0.25 0"/>
<feBlend mode="normal" in2="BackgroundImageFix" result="effect1_dropShadow_157_86"/>
<feBlend mode="normal" in="SourceGraphic" in2="effect1_dropShadow_157_86" result="shape"/>
</filter>
<linearGradient id="paint0_linear_157_86" x1="175" y1="60.3916" x2="175" y2="237.5" gradientUnits="userSpaceOnUse">
<stop stop-color="#258662"/>
</linearGradient>
<linearGradient id="paint1_linear_157_86" x1="185.75" y1="154" x2="185.75" y2="195" gradientUnits="userSpaceOnUse">
<stop stop-color="#FFE284"/>
<stop offset="1" stop-color="#FFAE52"/>
</linearGradient>
<linearGradient id="paint2_linear_157_86" x1="164.75" y1="153.5" x2="164.75" y2="195" gradientUnits="userSpaceOnUse">
<stop stop-color="#FFE284"/>
<stop offset="1" stop-color="#FFAE52"/>
</linearGradient>
<linearGradient id="paint3_linear_157_86" x1="175" y1="182" x2="175" y2="194" gradientUnits="userSpaceOnUse">
<stop stop-color="#FFE284"/>
<stop offset="1" stop-color="#FFAE52"/>
</linearGradient>
<linearGradient id="paint4_linear_157_86" x1="251.6" y1="188.7" x2="251.6" y2="249.7" gradientUnits="userSpaceOnUse">
<stop stop-color="#FFE284"/>
<stop offset="0.5" stop-color="#FFAE52"/>
</linearGradient>
<linearGradient id="paint5_linear_157_86" x1="98.3" y1="188.8" x2="98.3" y2="249.8" gradientUnits="userSpaceOnUse">
<stop stop-color="#FFE284"/>
<stop offset="0.5" stop-color="#FFAE52"/>
</linearGradient>
<linearGradient id="paint6_linear_157_86" x1="642" y1="55" x2="642" y2="209" gradientUnits="userSpaceOnUse">
<stop stop-color="white"/>
</linearGradient>
</defs>
</svg>
