<svg width="350" height="350" viewBox="0 0 350 350" fill="none" xmlns="http://www.w3.org/2000/svg">
<g filter="url(#filter0_d_82_6)">
<mask id="path-1-inside-1_82_6" fill="white">
<path d="M283.253 237.5H192.031L179.618 216H170.381L157.969 237.5H66.7471L169 60.3916V135.447C149.755 138.342 135 154.948 135 175C135 183.499 137.653 191.378 142.173 197.857L175 141L207.827 197.857C212.347 191.378 215 183.499 215 175C215 154.948 200.245 138.342 181 135.447V60.3916L283.253 237.5Z"/>
</mask>
<path d="M283.253 237.5H192.031L179.618 216H170.381L157.969 237.5H66.7471L169 60.3916V135.447C149.755 138.342 135 154.948 135 175C135 183.499 137.653 191.378 142.173 197.857L175 141L207.827 197.857C212.347 191.378 215 183.499 215 175C215 154.948 200.245 138.342 181 135.447V60.3916L283.253 237.5Z" fill="#258662"/>
<path d="M283.253 237.5V240.5H288.449L285.851 236L283.253 237.5ZM192.031 237.5L189.433 239L190.299 240.5H192.031V237.5ZM179.618 216L182.216 214.5L181.35 213H179.618V216ZM170.381 216V213H168.649L167.783 214.5L170.381 216ZM157.969 237.5V240.5H159.701L160.567 239L157.969 237.5ZM66.7471 237.5L64.149 236L61.5509 240.5H66.7471V237.5ZM169 60.3916H172V49.1954L166.402 58.8916L169 60.3916ZM169 135.447L169.446 138.414L172 138.03V135.447H169ZM142.173 197.857L139.712 199.574L142.412 203.443L144.771 199.357L142.173 197.857ZM175 141L177.598 139.5L175 135L172.402 139.5L175 141ZM207.827 197.857L205.229 199.357L207.588 203.443L210.288 199.574L207.827 197.857ZM181 135.447H178V138.03L180.554 138.414L181 135.447ZM181 60.3916L183.598 58.8916L178 49.1954V60.3916H181ZM283.253 237.5V234.5H192.031V237.5V240.5H283.253V237.5ZM192.031 237.5L194.629 236L182.216 214.5L179.618 216L177.02 217.5L189.433 239L192.031 237.5ZM179.618 216V213H170.381V216V219H179.618V216ZM170.381 216L167.783 214.5L155.371 236L157.969 237.5L160.567 239L172.979 217.5L170.381 216ZM157.969 237.5V234.5H66.7471V237.5V240.5H157.969V237.5ZM66.7471 237.5L69.3452 239L171.598 61.8916L169 60.3916L166.402 58.8916L64.149 236L66.7471 237.5ZM169 60.3916H166V135.447H169H172V60.3916H169ZM169 135.447L168.554 132.481C147.863 135.593 132 153.441 132 175H135H138C138 156.455 151.647 141.091 169.446 138.414L169 135.447ZM135 175H132C132 184.133 134.853 192.608 139.712 199.574L142.173 197.857L144.633 196.141C140.453 190.149 138 182.865 138 175H135ZM142.173 197.857L144.771 199.357L177.598 142.5L175 141L172.402 139.5L139.575 196.357L142.173 197.857ZM175 141L172.402 142.5L205.229 199.357L207.827 197.857L210.425 196.357L177.598 139.5L175 141ZM207.827 197.857L210.288 199.574C215.147 192.608 218 184.133 218 175H215H212C212 182.865 209.547 190.149 205.367 196.141L207.827 197.857ZM215 175H218C218 153.441 202.137 135.593 181.446 132.481L181 135.447L180.554 138.414C198.353 141.091 212 156.455 212 175H215ZM181 135.447H184V60.3916H181H178V135.447H181ZM181 60.3916L178.402 61.8916L280.655 239L283.253 237.5L285.851 236L183.598 58.8916L181 60.3916Z" fill="white" mask="url(#path-1-inside-1_82_6)"/>
</g>
<path d="M194.5 195L177 154L187 188H180.5L194.5 195Z" fill="url(#paint0_linear_82_6)"/>
<path d="M156 195L173.5 153.5L163.5 188H170L156 195Z" fill="url(#paint1_linear_82_6)"/>
<ellipse cx="175" cy="188" rx="3" ry="6" fill="url(#paint2_linear_82_6)"/>
<path d="M251.6 188.7L278.014 234.45H225.186L251.6 188.7Z" fill="url(#paint3_linear_82_6)"/>
<path d="M98.3 188.8L124.714 234.55H71.8863L98.3 188.8Z" fill="url(#paint4_linear_82_6)"/>
<g filter="url(#filter1_d_82_6)">
<path d="M59.7686 277L73.2926 246.97H83.6666L97.1906 277H89.8826L87.0266 270.658H69.9326L67.0766 277H59.7686ZM72.3686 265.198H84.5906L78.7526 252.22H78.2066L72.3686 265.198ZM99.5902 277.21V271.75L123.74 271.792C124.972 271.792 125.91 271.512 126.554 270.952C127.226 270.364 127.562 269.426 127.562 268.138C127.562 266.85 127.226 265.926 126.554 265.366C125.91 264.778 124.972 264.484 123.74 264.484H108.704C105.596 264.484 103.174 263.742 101.438 262.258C99.7302 260.746 98.8762 258.534 98.8762 255.622C98.8762 252.71 99.7302 250.512 101.438 249.028C103.174 247.516 105.596 246.76 108.704 246.76H132.308V252.22L109.418 252.178C108.214 252.178 107.276 252.458 106.604 253.018C105.932 253.55 105.596 254.418 105.596 255.622C105.596 256.826 105.932 257.708 106.604 258.268C107.276 258.8 108.214 259.066 109.418 259.066H124.454C127.562 259.066 129.97 259.836 131.678 261.376C133.414 262.888 134.282 265.142 134.282 268.138C134.282 271.106 133.414 273.36 131.678 274.9C129.97 276.44 127.562 277.21 124.454 277.21H99.5902ZM153.952 277.21C148.408 277.21 144.166 275.936 141.226 273.388C138.286 270.812 136.816 267.004 136.816 261.964C136.816 256.952 138.286 253.158 141.226 250.582C144.166 248.006 148.408 246.732 153.952 246.76L169.072 246.844V252.22H154.414C150.774 252.22 148.072 252.99 146.308 254.53C144.544 256.07 143.662 258.548 143.662 261.964C143.662 265.38 144.544 267.872 146.308 269.44C148.072 270.98 150.774 271.75 154.414 271.75H169.492V277.21H153.952ZM173.687 277V246.97H206.615V252.43H180.407V259.066H204.179V264.526H180.407V271.54H206.615V277H173.687ZM211.216 277V246.97H218.02L239.272 268.558V246.97H245.992V277H239.188L217.936 255.37V277H211.216ZM250.813 262.174V246.97H287.773V262.174H280.969V252.43H271.813V277H265.093V252.43H257.617V262.174H250.813Z" fill="white"/>
</g>
<g filter="url(#filter2_d_82_6)">
<path d="M60.2362 302V285.176H67.5562C69.1402 285.176 70.3402 285.544 71.1562 286.28C71.9882 287.016 72.4042 288.112 72.4042 289.568C72.4042 291.024 71.9882 292.12 71.1562 292.856C70.3402 293.592 69.1402 293.96 67.5562 293.96H61.7002V302H60.2362ZM61.7002 292.544H67.4362C68.5882 292.544 69.4442 292.304 70.0042 291.824C70.5802 291.344 70.8682 290.592 70.8682 289.568C70.8682 288.544 70.5802 287.792 70.0042 287.312C69.4442 286.832 68.5882 286.592 67.4362 286.592H61.7002V292.544ZM78.5399 302.264C77.5159 302.264 76.6039 302.008 75.8039 301.496C75.0039 300.984 74.3719 300.28 73.9079 299.384C73.4439 298.472 73.2119 297.424 73.2119 296.24C73.2119 295.056 73.4439 294.016 73.9079 293.12C74.3719 292.208 75.0039 291.496 75.8039 290.984C76.6039 290.472 77.5159 290.216 78.5399 290.216C79.5799 290.216 80.4999 290.472 81.2999 290.984C82.0999 291.496 82.7319 292.208 83.1959 293.12C83.6599 294.016 83.8919 295.056 83.8919 296.24C83.8919 297.424 83.6599 298.472 83.1959 299.384C82.7319 300.28 82.0999 300.984 81.2999 301.496C80.4999 302.008 79.5799 302.264 78.5399 302.264ZM78.5399 300.896C79.2919 300.896 79.9559 300.704 80.5319 300.32C81.1239 299.936 81.5879 299.4 81.9239 298.712C82.2599 298.008 82.4279 297.184 82.4279 296.24C82.4279 295.296 82.2599 294.48 81.9239 293.792C81.5879 293.088 81.1239 292.544 80.5319 292.16C79.9559 291.776 79.2919 291.584 78.5399 291.584C77.4199 291.584 76.4919 292.008 75.7559 292.856C75.0359 293.688 74.6759 294.816 74.6759 296.24C74.6759 297.648 75.0359 298.776 75.7559 299.624C76.4919 300.472 77.4199 300.896 78.5399 300.896ZM86.3174 302V284.672H87.7814V295.208L93.0374 290.504H95.0534L89.1014 295.712L95.2934 302H93.3974L87.7814 296.216V302H86.3174ZM101.018 302.264C99.978 302.264 99.05 302.024 98.234 301.544C97.434 301.048 96.802 300.352 96.338 299.456C95.89 298.544 95.666 297.472 95.666 296.24C95.666 295.04 95.89 293.992 96.338 293.096C96.802 292.2 97.434 291.504 98.234 291.008C99.034 290.496 99.946 290.24 100.97 290.24C102.01 290.24 102.89 290.504 103.61 291.032C104.346 291.544 104.906 292.216 105.29 293.048C105.674 293.864 105.866 294.728 105.866 295.64V296.12H97.13C97.098 297.56 97.434 298.728 98.138 299.624C98.858 300.504 99.826 300.944 101.042 300.944C101.938 300.944 102.69 300.72 103.298 300.272C103.906 299.808 104.402 299.128 104.786 298.232L105.986 298.928C104.962 301.152 103.306 302.264 101.018 302.264ZM97.226 294.872H104.426C104.346 294.248 104.146 293.68 103.826 293.168C103.522 292.656 103.122 292.248 102.626 291.944C102.146 291.64 101.594 291.488 100.97 291.488C99.994 291.488 99.17 291.792 98.498 292.4C97.842 292.992 97.418 293.816 97.226 294.872ZM108.42 302V290.504H109.788L109.86 292.304C110.116 291.712 110.54 291.216 111.132 290.816C111.724 290.416 112.396 290.216 113.148 290.216C114.076 290.216 114.836 290.432 115.428 290.864C116.036 291.296 116.444 291.896 116.652 292.664C116.924 291.96 117.356 291.376 117.948 290.912C118.54 290.448 119.3 290.216 120.228 290.216C121.412 290.216 122.34 290.592 123.012 291.344C123.684 292.08 124.02 293.192 124.02 294.68V302H122.556V294.896C122.556 293.68 122.324 292.824 121.86 292.328C121.396 291.832 120.772 291.584 119.988 291.584C119.38 291.584 118.844 291.744 118.38 292.064C117.932 292.368 117.58 292.776 117.324 293.288C117.084 293.784 116.964 294.328 116.964 294.92V302H115.5V294.896C115.5 293.68 115.26 292.824 114.78 292.328C114.316 291.832 113.692 291.584 112.908 291.584C112.3 291.584 111.764 291.744 111.3 292.064C110.852 292.384 110.5 292.8 110.244 293.312C110.004 293.808 109.884 294.336 109.884 294.896V302H108.42ZM131.792 302.264C130.768 302.264 129.856 302.008 129.056 301.496C128.256 300.984 127.624 300.28 127.16 299.384C126.696 298.472 126.464 297.424 126.464 296.24C126.464 295.056 126.696 294.016 127.16 293.12C127.624 292.208 128.256 291.496 129.056 290.984C129.856 290.472 130.768 290.216 131.792 290.216C132.832 290.216 133.752 290.472 134.552 290.984C135.352 291.496 135.984 292.208 136.448 293.12C136.912 294.016 137.144 295.056 137.144 296.24C137.144 297.424 136.912 298.472 136.448 299.384C135.984 300.28 135.352 300.984 134.552 301.496C133.752 302.008 132.832 302.264 131.792 302.264ZM131.792 300.896C132.544 300.896 133.208 300.704 133.784 300.32C134.376 299.936 134.84 299.4 135.176 298.712C135.512 298.008 135.68 297.184 135.68 296.24C135.68 295.296 135.512 294.48 135.176 293.792C134.84 293.088 134.376 292.544 133.784 292.16C133.208 291.776 132.544 291.584 131.792 291.584C130.672 291.584 129.744 292.008 129.008 292.856C128.288 293.688 127.928 294.816 127.928 296.24C127.928 297.648 128.288 298.776 129.008 299.624C129.744 300.472 130.672 300.896 131.792 300.896ZM139.569 302V290.504H140.937L140.985 292.136C141.353 291.592 141.841 291.136 142.449 290.768C143.073 290.4 143.777 290.216 144.561 290.216C145.793 290.216 146.785 290.608 147.537 291.392C148.289 292.176 148.665 293.296 148.665 294.752V302H147.225V294.968C147.225 293.848 146.953 293.008 146.409 292.448C145.881 291.888 145.193 291.608 144.345 291.608C143.705 291.608 143.129 291.752 142.617 292.04C142.121 292.312 141.729 292.688 141.441 293.168C141.169 293.632 141.033 294.152 141.033 294.728V302H139.569ZM158.256 302V285.2H163.128C164.52 285.2 165.728 285.424 166.752 285.872C167.776 286.304 168.616 286.912 169.272 287.696C169.944 288.464 170.44 289.36 170.76 290.384C171.096 291.392 171.264 292.464 171.264 293.6C171.264 294.736 171.096 295.816 170.76 296.84C170.44 297.848 169.944 298.744 169.272 299.528C168.616 300.296 167.776 300.904 166.752 301.352C165.728 301.784 164.52 302 163.128 302H158.256ZM159.72 300.584H163.056C164.64 300.584 165.92 300.264 166.896 299.624C167.888 298.968 168.608 298.112 169.056 297.056C169.52 295.984 169.752 294.832 169.752 293.6C169.752 292.352 169.52 291.2 169.056 290.144C168.608 289.072 167.888 288.216 166.896 287.576C165.92 286.92 164.64 286.592 163.056 286.592H159.72V300.584ZM173.684 302V290.504H175.076L175.148 292.496C175.468 291.824 175.972 291.28 176.66 290.864C177.364 290.432 178.14 290.216 178.988 290.216C179.212 290.216 179.436 290.232 179.66 290.264C179.9 290.28 180.1 290.312 180.26 290.36V291.776C180.116 291.744 179.908 291.712 179.636 291.68C179.38 291.648 179.116 291.632 178.844 291.632C178.172 291.632 177.556 291.792 176.996 292.112C176.436 292.416 175.988 292.832 175.652 293.36C175.332 293.872 175.172 294.456 175.172 295.112V302H173.684ZM185.299 302.216C184.179 302.232 183.267 301.976 182.563 301.448C181.875 300.92 181.531 300.152 181.531 299.144C181.531 298.376 181.787 297.704 182.299 297.128C182.827 296.552 183.491 296.104 184.291 295.784C185.107 295.448 185.947 295.28 186.811 295.28C187.995 295.28 188.931 295.56 189.619 296.12V294.152C189.619 293.08 189.395 292.384 188.947 292.064C188.499 291.728 187.779 291.56 186.787 291.56C186.147 291.56 185.435 291.68 184.651 291.92C183.867 292.144 183.203 292.432 182.659 292.784L181.963 291.632C182.587 291.232 183.339 290.896 184.219 290.624C185.115 290.352 185.971 290.216 186.787 290.216C188.243 290.216 189.315 290.496 190.003 291.056C190.691 291.616 191.035 292.648 191.035 294.152V300.512C191.035 300.816 191.115 300.992 191.275 301.04C191.451 301.072 191.827 301.032 192.403 300.92V301.952C192.243 302.016 192.027 302.072 191.755 302.12C191.483 302.184 191.227 302.216 190.987 302.216C190.443 302.216 190.091 302.104 189.931 301.88C189.771 301.656 189.675 301.232 189.643 300.608C189.147 301.152 188.491 301.552 187.675 301.808C186.859 302.064 186.067 302.2 185.299 302.216ZM185.371 300.896C186.139 300.88 186.851 300.76 187.507 300.536C188.179 300.312 188.707 299.992 189.091 299.576C189.491 299.144 189.675 298.624 189.643 298.016C189.595 297.52 189.323 297.152 188.827 296.912C188.331 296.656 187.691 296.536 186.907 296.552C186.251 296.552 185.619 296.664 185.011 296.888C184.403 297.112 183.907 297.424 183.523 297.824C183.155 298.208 182.971 298.656 182.971 299.168C182.971 299.76 183.195 300.2 183.643 300.488C184.091 300.76 184.667 300.896 185.371 300.896ZM195.887 302V291.848H193.511V290.504H195.887V288.224C195.887 287.28 196.047 286.544 196.367 286.016C196.687 285.488 197.111 285.112 197.639 284.888C198.167 284.664 198.735 284.552 199.343 284.552C199.663 284.552 199.959 284.576 200.231 284.624C200.519 284.656 200.767 284.712 200.975 284.792V286.16C200.799 286.08 200.575 286.016 200.303 285.968C200.047 285.92 199.791 285.896 199.535 285.896C198.895 285.896 198.367 286.088 197.951 286.472C197.535 286.84 197.327 287.456 197.327 288.32V290.504H200.975V291.848H197.327V302H195.887ZM207.248 302.264C206.224 302.264 205.456 302.048 204.944 301.616C204.432 301.184 204.176 300.408 204.176 299.288V291.848H201.68V290.504H204.176V286.28H205.616V290.504H209.12V291.848H205.616V299.048C205.616 299.768 205.768 300.264 206.072 300.536C206.376 300.792 206.848 300.92 207.488 300.92C207.76 300.92 208.048 300.88 208.352 300.8C208.656 300.72 208.912 300.632 209.12 300.536V301.952C208.896 302.032 208.608 302.104 208.256 302.168C207.904 302.232 207.568 302.264 207.248 302.264ZM217.813 302V285.2H219.277V300.584H228.565V302H217.813ZM235.25 302.264C234.21 302.264 233.282 302.024 232.466 301.544C231.666 301.048 231.034 300.352 230.57 299.456C230.122 298.544 229.898 297.472 229.898 296.24C229.898 295.04 230.122 293.992 230.57 293.096C231.034 292.2 231.666 291.504 232.466 291.008C233.266 290.496 234.178 290.24 235.202 290.24C236.242 290.24 237.122 290.504 237.842 291.032C238.578 291.544 239.138 292.216 239.522 293.048C239.906 293.864 240.098 294.728 240.098 295.64V296.12H231.362C231.33 297.56 231.666 298.728 232.37 299.624C233.09 300.504 234.058 300.944 235.274 300.944C236.17 300.944 236.922 300.72 237.53 300.272C238.138 299.808 238.634 299.128 239.018 298.232L240.218 298.928C239.194 301.152 237.538 302.264 235.25 302.264ZM231.458 294.872H238.658C238.578 294.248 238.378 293.68 238.058 293.168C237.754 292.656 237.354 292.248 236.858 291.944C236.378 291.64 235.826 291.488 235.202 291.488C234.226 291.488 233.402 291.792 232.73 292.4C232.074 292.992 231.65 293.816 231.458 294.872ZM245.49 302.216C244.37 302.232 243.458 301.976 242.754 301.448C242.066 300.92 241.722 300.152 241.722 299.144C241.722 298.376 241.978 297.704 242.49 297.128C243.018 296.552 243.682 296.104 244.482 295.784C245.298 295.448 246.138 295.28 247.002 295.28C248.186 295.28 249.122 295.56 249.81 296.12V294.152C249.81 293.08 249.586 292.384 249.138 292.064C248.69 291.728 247.97 291.56 246.978 291.56C246.338 291.56 245.626 291.68 244.842 291.92C244.058 292.144 243.394 292.432 242.85 292.784L242.154 291.632C242.778 291.232 243.53 290.896 244.41 290.624C245.306 290.352 246.162 290.216 246.978 290.216C248.434 290.216 249.506 290.496 250.194 291.056C250.882 291.616 251.226 292.648 251.226 294.152V300.512C251.226 300.816 251.306 300.992 251.466 301.04C251.642 301.072 252.018 301.032 252.594 300.92V301.952C252.434 302.016 252.218 302.072 251.946 302.12C251.674 302.184 251.418 302.216 251.178 302.216C250.634 302.216 250.282 302.104 250.122 301.88C249.962 301.656 249.866 301.232 249.834 300.608C249.338 301.152 248.682 301.552 247.866 301.808C247.05 302.064 246.258 302.2 245.49 302.216ZM245.562 300.896C246.33 300.88 247.042 300.76 247.698 300.536C248.37 300.312 248.898 299.992 249.282 299.576C249.682 299.144 249.866 298.624 249.834 298.016C249.786 297.52 249.514 297.152 249.018 296.912C248.522 296.656 247.882 296.536 247.098 296.552C246.442 296.552 245.81 296.664 245.202 296.888C244.594 297.112 244.098 297.424 243.714 297.824C243.346 298.208 243.162 298.656 243.162 299.168C243.162 299.76 243.386 300.2 243.834 300.488C244.282 300.76 244.858 300.896 245.562 300.896ZM258.825 307.184C256.697 307.184 255.097 306.352 254.025 304.688L255.225 303.896C256.025 305.16 257.225 305.792 258.825 305.792C260.009 305.792 260.913 305.4 261.537 304.616C262.161 303.848 262.473 302.688 262.473 301.136V299.072C262.073 299.696 261.553 300.192 260.913 300.56C260.273 300.912 259.545 301.088 258.729 301.088C257.753 301.088 256.881 300.864 256.113 300.416C255.361 299.968 254.761 299.336 254.313 298.52C253.881 297.704 253.665 296.744 253.665 295.64C253.665 294.536 253.881 293.584 254.313 292.784C254.761 291.968 255.361 291.336 256.113 290.888C256.881 290.44 257.753 290.216 258.729 290.216C259.561 290.216 260.305 290.408 260.961 290.792C261.617 291.16 262.145 291.672 262.545 292.328L262.569 290.504H263.913V301.136C263.913 303.216 263.441 304.744 262.497 305.72C261.569 306.696 260.345 307.184 258.825 307.184ZM258.801 299.744C259.521 299.744 260.161 299.576 260.721 299.24C261.281 298.888 261.721 298.408 262.041 297.8C262.361 297.176 262.521 296.456 262.521 295.64C262.521 294.824 262.361 294.112 262.041 293.504C261.721 292.896 261.281 292.424 260.721 292.088C260.161 291.736 259.521 291.56 258.801 291.56C258.097 291.56 257.465 291.736 256.905 292.088C256.361 292.424 255.929 292.896 255.609 293.504C255.289 294.112 255.129 294.824 255.129 295.64C255.129 296.456 255.289 297.176 255.609 297.8C255.929 298.408 256.361 298.888 256.905 299.24C257.465 299.576 258.097 299.744 258.801 299.744ZM270.893 302.264C269.677 302.264 268.693 301.872 267.941 301.088C267.189 300.304 266.813 299.184 266.813 297.728V290.504H268.253V297.536C268.253 298.656 268.517 299.496 269.045 300.056C269.589 300.616 270.285 300.896 271.133 300.896C272.109 300.896 272.901 300.592 273.509 299.984C274.117 299.376 274.421 298.632 274.421 297.752V290.504H275.885V301.976H274.517L274.469 300.368C274.133 300.896 273.653 301.344 273.029 301.712C272.405 302.08 271.693 302.264 270.893 302.264ZM283.674 302.264C282.634 302.264 281.706 302.024 280.89 301.544C280.09 301.048 279.458 300.352 278.994 299.456C278.546 298.544 278.322 297.472 278.322 296.24C278.322 295.04 278.546 293.992 278.994 293.096C279.458 292.2 280.09 291.504 280.89 291.008C281.69 290.496 282.602 290.24 283.626 290.24C284.666 290.24 285.546 290.504 286.266 291.032C287.002 291.544 287.562 292.216 287.946 293.048C288.33 293.864 288.522 294.728 288.522 295.64V296.12H279.786C279.754 297.56 280.09 298.728 280.794 299.624C281.514 300.504 282.482 300.944 283.698 300.944C284.594 300.944 285.346 300.72 285.954 300.272C286.562 299.808 287.058 299.128 287.442 298.232L288.642 298.928C287.618 301.152 285.962 302.264 283.674 302.264ZM279.882 294.872H287.082C287.002 294.248 286.802 293.68 286.482 293.168C286.178 292.656 285.778 292.248 285.282 291.944C284.802 291.64 284.25 291.488 283.626 291.488C282.65 291.488 281.826 291.792 281.154 292.4C280.498 292.992 280.074 293.816 279.882 294.872Z" fill="white"/>
</g>
<defs>
<filter id="filter0_d_82_6" x="62.7471" y="60.3916" width="224.506" height="185.108" filterUnits="userSpaceOnUse" color-interpolation-filters="sRGB">
<feFlood flood-opacity="0" result="BackgroundImageFix"/>
<feColorMatrix in="SourceAlpha" type="matrix" values="0 0 0 0 0 0 0 0 0 0 0 0 0 0 0 0 0 0 127 0" result="hardAlpha"/>
<feOffset dy="4"/>
<feGaussianBlur stdDeviation="2"/>
<feComposite in2="hardAlpha" operator="out"/>
<feColorMatrix type="matrix" values="0 0 0 0 0 0 0 0 0 0 0 0 0 0 0 0 0 0 0.25 0"/>
<feBlend mode="normal" in2="BackgroundImageFix" result="effect1_dropShadow_82_6"/>
<feBlend mode="normal" in="SourceGraphic" in2="effect1_dropShadow_82_6" result="shape"/>
</filter>
<filter id="filter1_d_82_6" x="55.7687" y="246.718" width="236.004" height="38.492" filterUnits="userSpaceOnUse" color-interpolation-filters="sRGB">
<feFlood flood-opacity="0" result="BackgroundImageFix"/>
<feColorMatrix in="SourceAlpha" type="matrix" values="0 0 0 0 0 0 0 0 0 0 0 0 0 0 0 0 0 0 127 0" result="hardAlpha"/>
<feOffset dy="4"/>
<feGaussianBlur stdDeviation="2"/>
<feComposite in2="hardAlpha" operator="out"/>
<feColorMatrix type="matrix" values="0 0 0 0 0 0 0 0 0 0 0 0 0 0 0 0 0 0 0.25 0"/>
<feBlend mode="normal" in2="BackgroundImageFix" result="effect1_dropShadow_82_6"/>
<feBlend mode="normal" in="SourceGraphic" in2="effect1_dropShadow_82_6" result="shape"/>
</filter>
<filter id="filter2_d_82_6" x="56.2362" y="284.552" width="236.406" height="30.632" filterUnits="userSpaceOnUse" color-interpolation-filters="sRGB">
<feFlood flood-opacity="0" result="BackgroundImageFix"/>
<feColorMatrix in="SourceAlpha" type="matrix" values="0 0 0 0 0 0 0 0 0 0 0 0 0 0 0 0 0 0 127 0" result="hardAlpha"/>
<feOffset dy="4"/>
<feGaussianBlur stdDeviation="2"/>
<feComposite in2="hardAlpha" operator="out"/>
<feColorMatrix type="matrix" values="0 0 0 0 0 0 0 0 0 0 0 0 0 0 0 0 0 0 0.25 0"/>
<feBlend mode="normal" in2="BackgroundImageFix" result="effect1_dropShadow_82_6"/>
<feBlend mode="normal" in="SourceGraphic" in2="effect1_dropShadow_82_6" result="shape"/>
</filter>
<linearGradient id="paint0_linear_82_6" x1="185.75" y1="154" x2="185.75" y2="195" gradientUnits="userSpaceOnUse">
<stop stop-color="#FFE284"/>
<stop offset="1" stop-color="#FFAE52"/>
</linearGradient>
<linearGradient id="paint1_linear_82_6" x1="164.75" y1="153.5" x2="164.75" y2="195" gradientUnits="userSpaceOnUse">
<stop stop-color="#FFE284"/>
<stop offset="1" stop-color="#FFAE52"/>
</linearGradient>
<linearGradient id="paint2_linear_82_6" x1="175" y1="182" x2="175" y2="194" gradientUnits="userSpaceOnUse">
<stop stop-color="#FFE284"/>
<stop offset="1" stop-color="#FFAE52"/>
</linearGradient>
<linearGradient id="paint3_linear_82_6" x1="251.6" y1="188.7" x2="251.6" y2="249.7" gradientUnits="userSpaceOnUse">
<stop stop-color="#FFE284"/>
<stop offset="0.5" stop-color="#FFAE52"/>
</linearGradient>
<linearGradient id="paint4_linear_82_6" x1="98.3" y1="188.8" x2="98.3" y2="249.8" gradientUnits="userSpaceOnUse">
<stop stop-color="#FFE284"/>
<stop offset="0.5" stop-color="#FFAE52"/>
</linearGradient>
</defs>
</svg>
