<svg width="350" height="350" viewBox="0 0 350 350" fill="none" xmlns="http://www.w3.org/2000/svg">
<g filter="url(#filter0_d_33_48)">
<mask id="path-1-inside-1_33_48" fill="white">
<path d="M283.253 237.5H192.031L179.618 216H170.381L157.969 237.5H66.7471L169 60.3916V135.447C149.755 138.342 135 154.948 135 175C135 183.499 137.653 191.378 142.173 197.857L175 141L207.827 197.857C212.347 191.378 215 183.499 215 175C215 154.948 200.245 138.342 181 135.447V60.3916L283.253 237.5Z"/>
</mask>
<path d="M283.253 237.5H192.031L179.618 216H170.381L157.969 237.5H66.7471L169 60.3916V135.447C149.755 138.342 135 154.948 135 175C135 183.499 137.653 191.378 142.173 197.857L175 141L207.827 197.857C212.347 191.378 215 183.499 215 175C215 154.948 200.245 138.342 181 135.447V60.3916L283.253 237.5Z" fill="#258662"/>
<path d="M283.253 237.5V240.5H288.449L285.851 236L283.253 237.5ZM192.031 237.5L189.433 239L190.299 240.5H192.031V237.5ZM179.618 216L182.216 214.5L181.35 213H179.618V216ZM170.381 216V213H168.649L167.783 214.5L170.381 216ZM157.969 237.5V240.5H159.701L160.567 239L157.969 237.5ZM66.7471 237.5L64.149 236L61.5509 240.5H66.7471V237.5ZM169 60.3916H172V49.1954L166.402 58.8916L169 60.3916ZM169 135.447L169.446 138.414L172 138.03V135.447H169ZM142.173 197.857L139.712 199.574L142.412 203.443L144.771 199.357L142.173 197.857ZM175 141L177.598 139.5L175 135L172.402 139.5L175 141ZM207.827 197.857L205.229 199.357L207.588 203.443L210.288 199.574L207.827 197.857ZM181 135.447H178V138.03L180.554 138.414L181 135.447ZM181 60.3916L183.598 58.8916L178 49.1954V60.3916H181ZM283.253 237.5V234.5H192.031V237.5V240.5H283.253V237.5ZM192.031 237.5L194.629 236L182.216 214.5L179.618 216L177.02 217.5L189.433 239L192.031 237.5ZM179.618 216V213H170.381V216V219H179.618V216ZM170.381 216L167.783 214.5L155.371 236L157.969 237.5L160.567 239L172.979 217.5L170.381 216ZM157.969 237.5V234.5H66.7471V237.5V240.5H157.969V237.5ZM66.7471 237.5L69.3452 239L171.598 61.8916L169 60.3916L166.402 58.8916L64.149 236L66.7471 237.5ZM169 60.3916H166V135.447H169H172V60.3916H169ZM169 135.447L168.554 132.481C147.863 135.593 132 153.441 132 175H135H138C138 156.455 151.647 141.091 169.446 138.414L169 135.447ZM135 175H132C132 184.133 134.853 192.608 139.712 199.574L142.173 197.857L144.633 196.141C140.453 190.149 138 182.865 138 175H135ZM142.173 197.857L144.771 199.357L177.598 142.5L175 141L172.402 139.5L139.575 196.357L142.173 197.857ZM175 141L172.402 142.5L205.229 199.357L207.827 197.857L210.425 196.357L177.598 139.5L175 141ZM207.827 197.857L210.288 199.574C215.147 192.608 218 184.133 218 175H215H212C212 182.865 209.547 190.149 205.367 196.141L207.827 197.857ZM215 175H218C218 153.441 202.137 135.593 181.446 132.481L181 135.447L180.554 138.414C198.353 141.091 212 156.455 212 175H215ZM181 135.447H184V60.3916H181H178V135.447H181ZM181 60.3916L178.402 61.8916L280.655 239L283.253 237.5L285.851 236L183.598 58.8916L181 60.3916Z" fill="white" mask="url(#path-1-inside-1_33_48)"/>
</g>
<path d="M194.5 195L177 154L187 188H180.5L194.5 195Z" fill="url(#paint0_linear_33_48)"/>
<path d="M156 195L173.5 153.5L163.5 188H170L156 195Z" fill="url(#paint1_linear_33_48)"/>
<path d="M175 182.5C175.537 182.5 176.158 182.949 176.674 183.981C177.175 184.984 177.5 186.404 177.5 188C177.5 189.596 177.175 191.016 176.674 192.019C176.158 193.051 175.537 193.5 175 193.5C174.463 193.5 173.842 193.051 173.326 192.019C172.825 191.016 172.5 189.596 172.5 188C172.5 186.404 172.825 184.984 173.326 183.981C173.842 182.949 174.463 182.5 175 182.5Z" fill="url(#paint2_linear_33_48)" stroke="black"/>
<path d="M251.6 188.7L278.014 234.45H225.186L251.6 188.7Z" fill="url(#paint3_linear_33_48)"/>
<path d="M98.3 188.8L124.714 234.55H71.8862L98.3 188.8Z" fill="url(#paint4_linear_33_48)"/>
<g filter="url(#filter1_d_33_48)">
<path d="M43.48 295L58.936 260.68H70.792L86.248 295H77.896L74.632 287.752H55.096L51.832 295H43.48ZM57.88 281.512H71.848L65.176 266.68H64.552L57.88 281.512ZM88.9904 295.24V289L116.59 289.048C117.998 289.048 119.07 288.728 119.806 288.088C120.574 287.416 120.958 286.344 120.958 284.872C120.958 283.4 120.574 282.344 119.806 281.704C119.07 281.032 117.998 280.696 116.59 280.696H99.4064C95.8544 280.696 93.0864 279.848 91.1024 278.152C89.1504 276.424 88.1744 273.896 88.1744 270.568C88.1744 267.24 89.1504 264.728 91.1024 263.032C93.0864 261.304 95.8544 260.44 99.4064 260.44H126.382V266.68L100.222 266.632C98.8464 266.632 97.7744 266.952 97.0064 267.592C96.2384 268.2 95.8544 269.192 95.8544 270.568C95.8544 271.944 96.2384 272.952 97.0064 273.592C97.7744 274.2 98.8464 274.504 100.222 274.504H117.406C120.958 274.504 123.71 275.384 125.662 277.144C127.646 278.872 128.638 281.448 128.638 284.872C128.638 288.264 127.646 290.84 125.662 292.6C123.71 294.36 120.958 295.24 117.406 295.24H88.9904ZM151.118 295.24C144.782 295.24 139.934 293.784 136.574 290.872C133.214 287.928 131.534 283.576 131.534 277.816C131.534 272.088 133.214 267.752 136.574 264.808C139.934 261.864 144.782 260.408 151.118 260.44L168.398 260.536V266.68H151.646C147.486 266.68 144.398 267.56 142.382 269.32C140.366 271.08 139.358 273.912 139.358 277.816C139.358 281.72 140.366 284.568 142.382 286.36C144.398 288.12 147.486 289 151.646 289H168.878V295.24H151.118ZM173.673 295V260.68H211.305V266.92H181.353V274.504H208.521V280.744H181.353V288.76H211.305V295H173.673ZM216.563 295V260.68H224.339L248.627 285.352V260.68H256.307V295H248.531L224.243 270.28V295H216.563ZM261.816 278.056V260.68H304.056V278.056H296.28V266.92H285.816V295H278.136V266.92H269.592V278.056H261.816Z" fill="white"/>
</g>
<defs>
<filter id="filter0_d_33_48" x="62.7471" y="60.3916" width="224.506" height="185.108" filterUnits="userSpaceOnUse" color-interpolation-filters="sRGB">
<feFlood flood-opacity="0" result="BackgroundImageFix"/>
<feColorMatrix in="SourceAlpha" type="matrix" values="0 0 0 0 0 0 0 0 0 0 0 0 0 0 0 0 0 0 127 0" result="hardAlpha"/>
<feOffset dy="4"/>
<feGaussianBlur stdDeviation="2"/>
<feComposite in2="hardAlpha" operator="out"/>
<feColorMatrix type="matrix" values="0 0 0 0 0 0 0 0 0 0 0 0 0 0 0 0 0 0 0.25 0"/>
<feBlend mode="normal" in2="BackgroundImageFix" result="effect1_dropShadow_33_48"/>
<feBlend mode="normal" in="SourceGraphic" in2="effect1_dropShadow_33_48" result="shape"/>
</filter>
<filter id="filter1_d_33_48" x="39.48" y="260.392" width="268.576" height="42.848" filterUnits="userSpaceOnUse" color-interpolation-filters="sRGB">
<feFlood flood-opacity="0" result="BackgroundImageFix"/>
<feColorMatrix in="SourceAlpha" type="matrix" values="0 0 0 0 0 0 0 0 0 0 0 0 0 0 0 0 0 0 127 0" result="hardAlpha"/>
<feOffset dy="4"/>
<feGaussianBlur stdDeviation="2"/>
<feComposite in2="hardAlpha" operator="out"/>
<feColorMatrix type="matrix" values="0 0 0 0 0 0 0 0 0 0 0 0 0 0 0 0 0 0 0.25 0"/>
<feBlend mode="normal" in2="BackgroundImageFix" result="effect1_dropShadow_33_48"/>
<feBlend mode="normal" in="SourceGraphic" in2="effect1_dropShadow_33_48" result="shape"/>
</filter>
<linearGradient id="paint0_linear_33_48" x1="185.75" y1="154" x2="185.75" y2="195" gradientUnits="userSpaceOnUse">
<stop stop-color="#FFE284"/>
<stop offset="1" stop-color="#FFAE52"/>
</linearGradient>
<linearGradient id="paint1_linear_33_48" x1="164.75" y1="153.5" x2="164.75" y2="195" gradientUnits="userSpaceOnUse">
<stop stop-color="#FFE284"/>
<stop offset="1" stop-color="#FFAE52"/>
</linearGradient>
<linearGradient id="paint2_linear_33_48" x1="175" y1="182" x2="175" y2="194" gradientUnits="userSpaceOnUse">
<stop stop-color="#FFE284"/>
<stop offset="1" stop-color="#FFAE52"/>
</linearGradient>
<linearGradient id="paint3_linear_33_48" x1="251.6" y1="188.7" x2="251.6" y2="249.7" gradientUnits="userSpaceOnUse">
<stop stop-color="#FFE284"/>
<stop offset="0.5" stop-color="#FFAE52"/>
</linearGradient>
<linearGradient id="paint4_linear_33_48" x1="98.3" y1="188.8" x2="98.3" y2="249.8" gradientUnits="userSpaceOnUse">
<stop stop-color="#FFE284"/>
<stop offset="0.5" stop-color="#FFAE52"/>
</linearGradient>
</defs>
</svg>
